# xmcd
#
# Track frame offsets:
#	150
#	18916
#	38314
#	52850
#	69215
#	88019
#	101805
#	117446
#	130978
#	145697
#	164067
#	181950
#	204286
#	220496
#	241669
#	260892
#	281178
#	299088
#	319608
#
# Disc length: 4469 seconds
#
# Revision: 1
# Processed by: cddbd v1.5.2PL0 Copyright (c) Steve Scherf et al.
# Submitted via: audiograbber 1.83.01
#
DISCID=1c117313
DTITLE=Various Artist - New Country Giants Vol. 4
DYEAR=2004
DGENRE=Country
TTITLE0=George Straitt - I Can Still Make Cheyene
TTITLE1=Bob Seger - Blind Love
TTITLE2=Brooks and Dunn - More Than A Magarita
TTITLE3=Carlene Carter - One Tender Night
TTITLE4=Vince Gill - Which Bridge To Cross ( Which Bridge To Burn )
TTITLE5=Higway Men - The Last Cowboy Song
TTITLE6=Alan Jackson - Tonight I Climbed The Wall
TTITLE7=Dolly Parton and Billy Dean - ( You Got Me Over ) A Heartaches Tonight
TTITLE8=George Jones - I Must Have Something Bad
TTITLE9=Tim McGraw - Don't Take The Girl
TTITLE10=Garth Brooks - Night Riders Lament
TTITLE11=Wynnona - My Angel Is Here
TTITLE12=Dan Penn - Do Right Woman Do Right Man
TTITLE13=Bruce Springsteen - I Wish I Were Blind
TTITLE14=Radney Foster - The Running Kind
TTITLE15=Trisha Yearwood - Woman Walk The Line
TTITLE16=Ween - I'm Holding You
TTITLE17=Tarvis Tritt - Did You Fall Far Enough
TTITLE18=Suzie Boguss - My Side Of Story
EXTD=
EXTT0=
EXTT1=
EXTT2=
EXTT3=
EXTT4=
EXTT5=
EXTT6=
EXTT7=
EXTT8=
EXTT9=
EXTT10=
EXTT11=
EXTT12=
EXTT13=
EXTT14=
EXTT15=
EXTT16=
EXTT17=
EXTT18=
PLAYORDER=
